<?xml version="1.0" encoding="UTF-8" standalone="no"?><!DOCTYPE svg PUBLIC "-//W3C//DTD SVG 1.1//EN" "http://www.w3.org/Graphics/SVG/1.1/DTD/svg11.dtd"><svg width="100%" height="100%" viewBox="0 0 1334 1334" version="1.1" xmlns="http://www.w3.org/2000/svg" xmlns:xlink="http://www.w3.org/1999/xlink" xml:space="preserve" xmlns:serif="http://www.serif.com/" style="fill-rule:evenodd;clip-rule:evenodd;stroke-linejoin:round;stroke-miterlimit:2;"><path d="M170.428,968.072c-28.056,-13.497 110.048,-228.753 110.048,-228.753l165.274,79.188c0,-0 -247.86,162.777 -275.322,149.565Z" style="fill:#004099;"/><path d="M1122.93,520.343l0,213.907c0,88.545 -71.887,160.431 -160.431,160.431l-591.657,0c-88.544,0 -160.431,-71.886 -160.431,-160.431l0,-213.907c0,-88.545 71.887,-160.431 160.431,-160.431l591.657,-0c88.544,-0 160.431,71.886 160.431,160.431Z" style="fill:#004099;"/><path d="M833.683,591.976l0,70.641c0,67.929 -55.15,123.08 -123.08,123.08l-87.873,-0c-67.93,-0 -123.08,-55.151 -123.08,-123.08l-0,-70.641c-0,-67.929 55.15,-123.08 123.08,-123.08l87.873,0c67.93,0 123.08,55.151 123.08,123.08Z" style="fill:url(#_Radial1);"/><path d="M426.766,480.533l0,293.527c0,39.861 -32.362,72.223 -72.223,72.223c-39.861,-0 -72.223,-32.362 -72.223,-72.223l-0,-293.527c-0,-39.861 32.362,-72.223 72.223,-72.223c39.861,0 72.223,32.362 72.223,72.223Z" style="fill:url(#_Radial2);"/><path d="M1071.01,627.297c-0,50.539 -41.032,91.571 -91.572,91.571c-50.54,0 -91.572,-41.032 -91.572,-91.571c0,-50.54 41.032,-91.572 91.572,-91.572c50.54,-0 91.572,41.032 91.572,91.572Z" style="fill:url(#_Radial3);"/><defs><radialGradient id="_Radial1" cx="0" cy="0" r="1" gradientUnits="userSpaceOnUse" gradientTransform="matrix(167.017,0,0,158.4,666.667,627.297)"><stop offset="0" style="stop-color:#87ce6e;stop-opacity:1"/><stop offset="1" style="stop-color:#009f39;stop-opacity:1"/></radialGradient><radialGradient id="_Radial2" cx="0" cy="0" r="1" gradientUnits="userSpaceOnUse" gradientTransform="matrix(72.2232,0,0,218.986,354.543,627.297)"><stop offset="0" style="stop-color:#d486b9;stop-opacity:1"/><stop offset="1" style="stop-color:#e34c9c;stop-opacity:1"/></radialGradient><radialGradient id="_Radial3" cx="0" cy="0" r="1" gradientUnits="userSpaceOnUse" gradientTransform="matrix(183.144,0,0,183.144,887.87,627.297)"><stop offset="0" style="stop-color:#663093;stop-opacity:1"/><stop offset="1" style="stop-color:#56a7e1;stop-opacity:1"/></radialGradient></defs></svg>
