<?xml version="1.0" encoding="UTF-8" standalone="no"?>
<!DOCTYPE svg PUBLIC "-//W3C//DTD SVG 1.1//EN" "http://www.w3.org/Graphics/SVG/1.1/DTD/svg11.dtd">
<svg width="100%" height="100%" viewBox="0 0 1852 1852" version="1.1" xmlns="http://www.w3.org/2000/svg" xmlns:xlink="http://www.w3.org/1999/xlink" xml:space="preserve" xmlns:serif="http://www.serif.com/" style="fill-rule:evenodd;clip-rule:evenodd;stroke-linecap:round;stroke-linejoin:round;stroke-miterlimit:1.5;">
    <g transform="matrix(1.85185,0,0,1.85185,0,0)">
        <rect id="Artboard1" x="0" y="0" width="1000" height="1000" style="fill:none;"/>
        <clipPath id="_clip1">
            <rect id="Artboard11" serif:id="Artboard1" x="0" y="0" width="1000" height="1000"/>
        </clipPath>
        <g clip-path="url(#_clip1)">
            <g transform="matrix(0.000432544,1,-1,0.000432544,999.567,-0.432451)">
                <rect x="0" y="0" width="1000" height="1000" style="fill:url(#_Linear2);"/>
            </g>
            <g transform="matrix(1.07261,0,0,1.09983,-40.5941,-48.2657)">
                <ellipse cx="504" cy="498.5" rx="303" ry="295.5" style="fill:rgb(76,180,229);stroke:black;stroke-width:69.04px;"/>
            </g>
            <g transform="matrix(1.3,0,0,0.955449,-136,32.0288)">
                <path d="M620,338.031L620,431.969C620,469.516 597.596,500 570,500C542.404,500 520,469.516 520,431.969L520,338.031C520,300.484 542.404,270 570,270C597.596,270 620,300.484 620,338.031Z"/>
            </g>
            <g transform="matrix(1.08844,0,0,0.941176,19.5918,238.118)">
                <ellipse cx="349.5" cy="172" rx="73.5" ry="85"/>
            </g>
            <g transform="matrix(1,0,0,1,2.84217e-14,39.9956)">
                <path d="M240,520C399.998,520.804 400,520 400,520C400,520 400.004,518.241 750,520C782,520.161 701,701.01 500,700C301,699 204,519.819 240,520Z"/>
            </g>
        </g>
    </g>
    <defs>
        <linearGradient id="_Linear2" x1="0" y1="0" x2="1" y2="0" gradientUnits="userSpaceOnUse" gradientTransform="matrix(1000,0,0,1000,0,0)"><stop offset="0" style="stop-color:rgb(13,121,242);stop-opacity:1"/><stop offset="1" style="stop-color:rgb(134,89,166);stop-opacity:1"/></linearGradient>
    </defs>
</svg>
