<?xml version="1.0" encoding="UTF-8" standalone="no"?>
<!DOCTYPE svg PUBLIC "-//W3C//DTD SVG 1.1//EN" "http://www.w3.org/Graphics/SVG/1.1/DTD/svg11.dtd">
<svg width="100%" height="100%" viewBox="0 0 1389 417" version="1.1" xmlns="http://www.w3.org/2000/svg" xmlns:xlink="http://www.w3.org/1999/xlink" xml:space="preserve" xmlns:serif="http://www.serif.com/" style="fill-rule:evenodd;clip-rule:evenodd;stroke-linejoin:round;stroke-miterlimit:2;">
    <g transform="matrix(2.77778,0,0,2.77778,0,0)">
        <g transform="matrix(1.76056,0,0,1.76056,-65.5354,81.9643)">
            <text x="39.664px" y="20.884px" style="font-family:'FunnelDisplay-Light', 'Funnel Display';font-weight:300;font-size:72px;">Chat</text>
            <g transform="matrix(72,0,0,72,198.664,20.8843)">
                <path d="M0.342,0.01C0.249,0.01 0.176,-0.01 0.121,-0.05C0.067,-0.091 0.037,-0.147 0.032,-0.219L0.192,-0.219C0.198,-0.184 0.214,-0.158 0.24,-0.141C0.266,-0.124 0.302,-0.115 0.348,-0.115C0.389,-0.115 0.419,-0.121 0.44,-0.134C0.46,-0.146 0.47,-0.165 0.47,-0.19C0.47,-0.209 0.464,-0.225 0.451,-0.235C0.439,-0.246 0.418,-0.255 0.389,-0.261L0.247,-0.291C0.182,-0.305 0.134,-0.327 0.103,-0.358C0.072,-0.389 0.057,-0.43 0.057,-0.481C0.057,-0.545 0.081,-0.595 0.13,-0.631C0.178,-0.667 0.244,-0.685 0.328,-0.685C0.413,-0.685 0.481,-0.666 0.533,-0.628C0.584,-0.591 0.613,-0.538 0.618,-0.47L0.458,-0.47C0.443,-0.533 0.396,-0.565 0.319,-0.565C0.285,-0.565 0.259,-0.559 0.239,-0.547C0.22,-0.535 0.21,-0.518 0.21,-0.496C0.21,-0.463 0.234,-0.441 0.282,-0.431L0.431,-0.4C0.498,-0.386 0.547,-0.363 0.578,-0.332C0.608,-0.3 0.623,-0.257 0.623,-0.203C0.623,-0.135 0.599,-0.083 0.55,-0.046C0.502,-0.009 0.432,0.01 0.342,0.01Z" style="fill-rule:nonzero;"/>
            </g>
            <g transform="matrix(72,0,0,72,245.464,20.8843)">
                <path d="M0.293,0.01C0.238,0.01 0.191,-0.001 0.15,-0.022C0.109,-0.043 0.078,-0.074 0.056,-0.113C0.034,-0.152 0.023,-0.198 0.023,-0.252C0.023,-0.305 0.034,-0.351 0.055,-0.39C0.077,-0.428 0.107,-0.458 0.147,-0.479C0.187,-0.5 0.234,-0.51 0.288,-0.51C0.341,-0.51 0.387,-0.5 0.425,-0.48C0.463,-0.459 0.493,-0.43 0.513,-0.393C0.533,-0.355 0.543,-0.309 0.543,-0.257L0.543,-0.208L0.171,-0.208C0.177,-0.175 0.19,-0.151 0.211,-0.135C0.231,-0.118 0.259,-0.11 0.293,-0.11C0.32,-0.11 0.341,-0.114 0.356,-0.123C0.372,-0.132 0.383,-0.145 0.389,-0.164L0.543,-0.164C0.532,-0.11 0.505,-0.067 0.461,-0.036C0.417,-0.005 0.361,0.01 0.293,0.01ZM0.173,-0.308L0.397,-0.308C0.392,-0.335 0.38,-0.356 0.362,-0.37C0.344,-0.383 0.319,-0.39 0.288,-0.39C0.258,-0.39 0.233,-0.383 0.213,-0.369C0.194,-0.355 0.181,-0.335 0.173,-0.308Z" style="fill-rule:nonzero;"/>
            </g>
            <g transform="matrix(72,0,0,72,286.264,20.8843)">
                <path d="M0.098,-0L0.098,-0.35L0.023,-0.35L0.023,-0.5L0.177,-0.5L0.177,-0.4L0.212,-0.4C0.224,-0.436 0.245,-0.463 0.274,-0.48C0.303,-0.498 0.335,-0.507 0.371,-0.507L0.413,-0.507L0.413,-0.373L0.364,-0.373C0.323,-0.373 0.293,-0.362 0.275,-0.339C0.257,-0.316 0.248,-0.287 0.248,-0.25L0.248,-0L0.098,-0Z" style="fill-rule:nonzero;"/>
            </g>
            <g transform="matrix(72,0,0,72,317.464,20.8843)">
            </g>
        </g>
    </g>
</svg>
